HIERARCHY
ROOT Hips
{
	OFFSET 0.00000 0.00000 0.00000
	CHANNELS 6 Xposition Yposition Zposition Zrotation Yrotation Xrotation 
	JOINT LHipJoint
	{
		OFFSET 0 0 0
		CHANNELS 3 Zrotation Yrotation Xrotation
		JOINT LeftHip
		{
			OFFSET 1.59801 -1.77853 0.57028
			CHANNELS 3 Zrotation Yrotation Xrotation
			JOINT LeftKnee
			{
				OFFSET 2.39439 -6.57854 0.00000
				CHANNELS 3 Zrotation Yrotation Xrotation
				JOINT LeftAnkle
				{
					OFFSET 2.69334 -7.39989 0.00000
					CHANNELS 3 Zrotation Yrotation Xrotation
					JOINT LeftToe
					{
						OFFSET 0.09553 -0.26245 1.73747
						CHANNELS 3 Zrotation Yrotation Xrotation
						End Site
						{
							OFFSET 0.00000 -0.00000 0.89391
						}
					}
				}
			}
		}
	}
	JOINT RHipJoint
	{
		OFFSET 0 0 0
		CHANNELS 3 Zrotation Yrotation Xrotation
		JOINT RightHip
		{
			OFFSET -1.54704 -1.77852 0.57028
			CHANNELS 3 Zrotation Yrotation Xrotation
			JOINT RightKnee
			{
				OFFSET -2.40286 -6.60180 0.00000
				CHANNELS 3 Zrotation Yrotation Xrotation
				JOINT RightAnkle
				{
					OFFSET -2.63873 -7.24984 0.00000
					CHANNELS 3 Zrotation Yrotation Xrotation
					JOINT RightToe
					{
						OFFSET -0.15631 -0.42945 1.84436
						CHANNELS 3 Zrotation Yrotation Xrotation
						End Site
						{
							OFFSET -0.00000 -0.00000 0.95734
						}
					}
				}
			}
		}
	}
	JOINT lowerback
	{
		OFFSET 0 0 0
		CHANNELS 3 Zrotation Yrotation Xrotation
		JOINT Chest
		{
			OFFSET -0.00436 1.89866 -0.04018
			CHANNELS 3 Zrotation Yrotation Xrotation
			JOINT Chest2
			{
				OFFSET 0.02031 1.88273 0.09634
				CHANNELS 3 Zrotation Yrotation Xrotation
				JOINT lowerneck
				{
					OFFSET 0 0 0
					CHANNELS 3 Zrotation Yrotation Xrotation
					JOINT Neck
					{
						OFFSET -0.13105 1.89371 0.23083
						CHANNELS 3 Zrotation Yrotation Xrotation
						JOINT Head
						{
							OFFSET 0.17062 1.83990 -0.54062
							CHANNELS 3 Zrotation Yrotation Xrotation
							End Site
							{
								OFFSET 0.04576 1.94782 -0.21839
							}
						}
					}
				}
				JOINT LeftCollar
				{
					OFFSET 0 0 0
					CHANNELS 3 Zrotation Yrotation Xrotation
					JOINT LeftShoulder
					{
						OFFSET 3.12424 1.09204 0.22226
CHANNELS 3 Zrotation Xrotation Yrotation
						JOINT LeftElbow
						{
OFFSET 0 -5.292770 0.000000
CHANNELS 3 Zrotation Xrotation Yrotation
							JOINT LeftWrist
							{
OFFSET 0 -2.852260 0.000000
CHANNELS 3 Zrotation Xrotation Yrotation
								JOINT lhand
								{
									OFFSET 0 0 0
CHANNELS 3 Zrotation Xrotation Yrotation
									JOINT LFingers
									{
OFFSET 0 -0.602100 0.000000
CHANNELS 3 Zrotation Xrotation Yrotation
										End Site
										{
OFFSET 0 -0.485430 0.000000
										}
									}
								}
								JOINT LThumb
								{
OFFSET 0 0.000000 0.000000
CHANNELS 3 Zrotation Xrotation Yrotation
									End Site
									{
OFFSET 0 -0.492840 0.492840
									}
								}
							}
						}
					}
				}
				JOINT RightCollar
				{
					OFFSET 0 0 0
					CHANNELS 3 Zrotation Yrotation Xrotation
					JOINT RightShoulder
					{
						OFFSET -2.91709 1.01504 0.30199
CHANNELS 3 Zrotation Xrotation Yrotation
						JOINT RightElbow
						{
OFFSET 0 -5.133040 0.000000
CHANNELS 3 Zrotation Xrotation Yrotation
							JOINT RightWrist
							{
OFFSET 0 -2.743050 0.000000
CHANNELS 3 Zrotation Xrotation Yrotation
								JOINT rhand
								{
									OFFSET 0 0 0
CHANNELS 3 Zrotation Xrotation Yrotation
									JOINT RFingers
									{
OFFSET 0 -0.767980 0.000000
CHANNELS 3 Zrotation Xrotation Yrotation
										End Site
										{
OFFSET 0 -0.619160 0.000000
										}
									}
								}
								JOINT RThumb
								{
OFFSET 0 0.000000 0.000000
CHANNELS 3 Zrotation Xrotation Yrotation
									End Site
									{
OFFSET 0 -0.628620 0.628620
									}
								}
							}
						}
					}
				}
			}
		}
	}
}
MOTION
Frames: 8
Frame Time: 0.008333333333333333
0.359951 16.066674 -2.170317 2.614942 6.867604 3.882894 0.000000 0.000000 0.000000 -18.695591 -9.230175 -33.216847 7.455803 15.703526 50.577166 0.722667 -13.939472 -16.851702 0.344130 -3.768781 -10.427096 0.000000 0.000000 0.000000 11.074582 2.783551 -33.723528 -8.137109 -16.218378 53.053851 -3.249910 3.604139 -33.314764 -1.102723 6.672350 -18.748197 -2.688768 1.438340 22.025191 3.168298 1.503432 14.349345 4.658999 0.454589 3.308054 -19.071592 -9.041511 -0.824434 25.190973 -12.876423 2.200679 10.530743 -6.309504 3.827949 0.000000 0.000000 0.000000 98.709158 -7.281089 34.651385 101.749812 -59.471535 70.157571 6.906045 -26.995319 -23.903185 0.000000 0.000000 0.000000 -7.125000 0.000000 0.000000 -22.881927 52.553931 4.440905 0.000000 0.000000 0.000000 -99.371288 -21.994541 -35.727953 -98.037945 -59.753673 -66.955335 -35.320483 -3.381615 -5.070521 0.000000 0.000000 0.000000 7.125000 0.000000 0.000000 -6.400485 23.774989 -3.302733
0.418771 15.714745 -2.150101 3.138345 8.406253 0.197250 0.000000 0.000000 0.000000 -19.805594 -8.514914 -32.048792 8.849969 16.710019 55.569687 0.773653 -16.063507 -18.065470 0.159205 -2.570179 -7.084281 0.000000 0.000000 0.000000 9.848766 -0.174401 -32.512810 -9.611627 -17.185502 58.182229 -3.802965 4.086264 -36.077492 -1.417477 7.529088 -21.292825 -4.110488 2.453527 22.634700 5.966081 2.597824 15.205210 8.383226 0.741165 3.778927 -20.885117 -9.000377 0.231828 25.497701 -12.955549 2.154680 11.010280 -6.423436 3.800253 0.000000 0.000000 0.000000 102.146618 -2.690779 37.574891 99.790751 -59.634661 68.468617 4.685950 -27.555597 -24.469442 0.000000 0.000000 0.000000 -7.125000 0.000000 0.000000 -25.310649 52.686577 5.047892 0.000000 0.000000 0.000000 -99.000551 -25.566098 -31.945294 -95.830527 -59.871108 -65.047204 -29.713868 -17.685952 3.435971 0.000000 0.000000 0.000000 7.125000 0.000000 0.000000 -2.542381 33.926007 -0.691487
0.429044 15.633993 -2.091121 3.258969 8.926863 -2.523529 0.000000 0.000000 0.000000 -20.396907 -7.646419 -29.383894 9.155379 16.906704 56.626020 0.881856 -16.388477 -18.999837 0.191975 -2.821589 -7.782401 0.000000 0.000000 0.000000 9.487908 -2.196523 -30.159189 -9.915606 -17.362117 59.205820 -4.077744 4.727193 -37.309113 -1.462371 7.642429 -21.633205 -3.011696 3.004663 22.555886 5.556820 3.501354 15.711992 7.121584 1.292799 4.289952 -18.860206 -8.934073 1.907060 25.985618 -13.161541 2.483595 10.897524 -6.588669 3.538888 0.000000 0.000000 0.000000 105.703515 -5.357384 39.247710 106.080570 -58.998538 73.879215 16.068884 -23.994797 -25.191814 0.000000 0.000000 0.000000 -7.125000 0.000000 0.000000 -14.570105 55.467712 3.790329 0.000000 0.000000 0.000000 -91.189695 -25.594183 -26.076244 -99.019015 -59.690362 -67.802549 -27.358147 -27.807942 8.441153 0.000000 0.000000 0.000000 7.125000 0.000000 0.000000 -0.416467 39.464204 -0.059579
0.416742 15.820852 -2.052001 2.888357 8.882124 -2.463160 0.000000 0.000000 0.000000 -20.172866 -7.905961 -27.591754 8.335543 16.360460 53.762135 0.787299 -15.658622 -18.009823 0.121249 -2.241211 -6.172826 0.000000 0.000000 0.000000 10.394133 -1.709641 -28.233232 -8.976779 -16.792660 56.009765 -3.766056 3.760897 -35.955523 -1.419718 7.535319 -21.311257 -2.044441 2.604787 21.757128 4.725901 3.147896 15.641797 5.738210 1.227429 4.712102 -18.150148 -8.701206 1.182258 26.130533 -12.879825 3.271193 10.825103 -6.367796 3.783304 0.000000 0.000000 0.000000 102.933883 -12.576664 40.479918 114.377547 -57.630439 80.943570 27.081296 -15.332429 -18.146932 0.000000 0.000000 0.000000 -7.125000 0.000000 0.000000 -0.996582 50.185391 0.131285 0.000000 0.000000 0.000000 -87.843653 -24.428167 -20.863180 -99.681855 -59.642764 -68.374609 -18.056784 -31.483297 9.366348 0.000000 0.000000 0.000000 7.125000 0.000000 0.000000 7.767054 39.706597 1.021338
0.376687 16.127930 -2.053128 1.961126 8.651508 -0.005854 0.000000 0.000000 0.000000 -18.921555 -8.645921 -27.774670 7.133901 15.443440 49.378732 0.705831 -14.341572 -16.860487 0.187369 -2.784885 -7.680579 0.000000 0.000000 0.000000 12.204767 0.063852 -28.006575 -7.571559 -15.794315 51.003308 -3.255366 2.423558 -33.600141 -1.228521 7.027128 -19.796714 -1.550243 1.659590 21.111323 3.428061 2.007516 14.629293 4.221177 0.774717 4.036725 -16.736392 -8.646468 -0.963450 26.360673 -12.723360 3.958478 10.574297 -6.106225 4.249184 0.000000 0.000000 0.000000 97.221868 -19.730118 39.622936 116.957721 -57.067108 83.116143 37.910089 4.701232 -15.201176 0.000000 0.000000 0.000000 -7.125000 0.000000 0.000000 10.153306 48.719237 -0.948776 0.000000 0.000000 0.000000 -90.126388 -22.104844 -18.001895 -99.363828 -59.666053 -68.100208 -9.313638 -30.135220 5.761915 0.000000 0.000000 0.000000 7.125000 0.000000 0.000000 14.438845 35.504030 3.478503
0.322602 16.300929 -2.092071 0.349847 7.726877 2.106986 0.000000 0.000000 0.000000 -16.604187 -8.735663 -29.359926 6.600403 14.985991 47.346298 0.697437 -13.386275 -16.443070 0.312676 -3.594615 -9.939025 0.000000 0.000000 0.000000 14.571565 1.202106 -28.619468 -6.589168 -14.975924 47.302939 -2.867447 1.942123 -31.577893 -1.166124 6.854952 -19.286438 -1.426558 0.677182 21.182661 2.425481 0.742095 13.982071 3.275787 0.197775 3.381422 -16.711478 -8.370162 -2.681180 27.272694 -12.213636 3.704703 10.893578 -5.749542 4.445926 0.000000 0.000000 0.000000 90.867659 -26.263473 39.255056 110.033773 -58.427641 77.258152 42.787133 19.111432 -16.992956 0.000000 0.000000 0.000000 -7.125000 0.000000 0.000000 15.482670 51.926883 -2.694019 0.000000 0.000000 0.000000 -96.709642 -19.635203 -22.019133 -97.367490 -59.793873 -66.376023 3.100423 -17.012956 -4.214105 0.000000 0.000000 0.000000 7.125000 0.000000 0.000000 22.005640 25.595487 11.138291
0.258601 16.215929 -2.130737 -0.416337 5.745851 2.074741 0.000000 0.000000 0.000000 -15.210650 -7.445949 -30.883223 7.147490 15.454421 49.429244 0.703195 -13.972047 -16.701703 0.203369 -2.902024 -8.006249 0.000000 0.000000 0.000000 15.603688 1.569716 -29.894126 -6.912739 -15.257647 48.543014 -2.976821 3.439122 -31.855575 -1.257036 7.107653 -20.034751 -4.021286 0.115457 22.393964 0.614740 -0.496747 13.125039 3.035772 -0.487498 1.940747 -13.644296 -7.154710 -1.639832 25.884970 -10.751320 4.410778 10.021116 -5.055545 3.821106 0.000000 0.000000 0.000000 86.862276 -29.139369 33.343978 99.420078 -59.659877 68.148594 42.204347 10.437062 -23.616937 0.000000 0.000000 0.000000 -7.125000 0.000000 0.000000 15.619242 59.846168 -5.742539 0.000000 0.000000 0.000000 -101.471952 -17.318005 -26.143515 -97.475735 -59.787701 -66.469581 4.012581 -2.386905 -7.924252 0.000000 0.000000 0.000000 7.125000 0.000000 0.000000 22.001771 22.134015 13.060614
0.181819 15.914283 -2.137876 -1.732972 3.698034 -0.054913 0.000000 0.000000 0.000000 -13.056083 -5.438411 -31.915500 8.677514 16.595408 54.967677 0.968997 -14.975490 -19.137566 0.315001 -3.606442 -9.972178 0.000000 0.000000 0.000000 17.130736 1.056183 -30.596205 -8.101053 -16.192930 52.925687 -3.384761 5.452519 -33.707513 -1.639444 8.070807 -22.929357 -4.569898 -0.553060 22.608504 -1.086293 -1.449570 14.786478 1.675527 -0.998708 3.768351 -14.052584 -6.939121 -4.340400 26.652163 -10.538336 5.519504 10.329770 -4.727097 4.664880 0.000000 0.000000 0.000000 85.509440 -32.939980 31.577227 95.975228 -59.864585 65.172383 40.172465 -18.933766 -30.834282 0.000000 0.000000 0.000000 -7.125000 0.000000 0.000000 12.728677 67.572377 -6.955111 0.000000 0.000000 0.000000 -105.703632 -15.358757 -35.113816 -95.793421 -59.872807 -65.015152 3.085928 7.722578 -8.546502 0.000000 0.000000 0.000000 7.125000 0.000000 0.000000 21.278896 21.562823 12.865391
